<svg width="6193" height="1374" viewBox="0 0 6193 1374" fill="none" xmlns="http://www.w3.org/2000/svg">
<g clip-path="url(#clip0_27_25)">
<path d="M2864 70L3383.62 370V970L2864 1270L2344.38 970V370L2864 70Z" fill="#4169E1"/>
<path d="M2958.93 386.104L3599.26 755.799L3453.48 1008.3L2543.87 483.141C2634.17 347.347 2815.73 303.426 2958.93 386.104Z" fill="#FFC300" stroke="white" stroke-width="40"/>
<path d="M2765.65 953.52L2125.32 583.825L2271.1 331.321L3180.71 856.483C3090.41 992.277 2908.85 1036.2 2765.65 953.52Z" fill="#FFC300" stroke="white" stroke-width="40"/>
</g>
<path d="M71.733 969V241.727H544.744V352.168H203.48V549.611H520.241V660.051H203.48V858.56H547.585V969H71.733ZM1104.58 567.722L987.393 580.506C984.079 568.669 978.279 557.542 969.993 547.125C961.944 536.708 951.054 528.304 937.322 521.912C923.591 515.52 906.783 512.324 886.896 512.324C860.144 512.324 837.654 518.124 819.425 529.724C801.432 541.325 792.554 556.358 792.791 574.824C792.554 590.686 798.355 603.588 810.192 613.531C822.266 623.474 842.152 631.642 869.851 638.034L962.891 657.92C1014.5 669.047 1052.85 686.685 1077.95 710.832C1103.28 734.98 1116.06 766.585 1116.3 805.648C1116.06 839.975 1106 870.278 1086.12 896.557C1066.47 922.598 1039.12 942.958 1004.08 957.636C969.046 972.314 928.8 979.653 883.345 979.653C816.584 979.653 762.843 965.686 722.124 937.75C681.404 909.578 657.138 870.397 649.325 820.207L774.68 808.134C780.362 832.755 792.436 851.339 810.902 863.886C829.368 876.434 853.397 882.707 882.99 882.707C913.53 882.707 938.033 876.434 956.499 863.886C975.201 851.339 984.553 835.832 984.553 817.366C984.553 801.741 978.516 788.839 966.442 778.659C954.605 768.479 936.139 760.667 911.044 755.222L818.004 735.69C765.684 724.8 726.977 706.453 701.882 680.648C676.787 654.606 664.358 621.699 664.595 581.926C664.358 548.309 673.473 519.189 691.939 494.568C710.642 469.71 736.565 450.534 769.709 437.04C803.089 423.309 841.56 416.443 885.121 416.443C949.041 416.443 999.349 430.056 1036.04 457.281C1072.98 484.507 1095.82 521.32 1104.58 567.722ZM1222.3 969V423.545H1350.85V969H1222.3ZM1286.93 346.131C1266.57 346.131 1249.05 339.384 1234.38 325.889C1219.7 312.158 1212.36 295.705 1212.36 276.528C1212.36 257.116 1219.7 240.662 1234.38 227.168C1249.05 213.437 1266.57 206.571 1286.93 206.571C1307.53 206.571 1325.05 213.437 1339.49 227.168C1354.17 240.662 1361.51 257.116 1361.51 276.528C1361.51 295.705 1354.17 312.158 1339.49 325.889C1325.05 339.384 1307.53 346.131 1286.93 346.131ZM1483.04 969V423.545H1605.91V516.23H1612.3C1623.67 484.98 1642.49 460.596 1668.77 443.077C1695.05 425.321 1726.41 416.443 1762.87 416.443C1799.8 416.443 1830.94 425.439 1856.27 443.432C1881.84 461.187 1899.83 485.454 1910.25 516.23H1915.93C1928 485.927 1948.36 461.779 1977.01 443.787C2005.89 425.558 2040.1 416.443 2079.63 416.443C2129.82 416.443 2170.78 432.305 2202.5 464.028C2234.23 495.752 2250.09 542.035 2250.09 602.878V969H2121.18V622.764C2121.18 588.91 2112.19 564.17 2094.19 548.545C2076.2 532.684 2054.18 524.753 2028.14 524.753C1997.13 524.753 1972.86 534.459 1955.34 553.872C1938.06 573.048 1929.42 598.025 1929.42 628.801V969H1803.36V617.438C1803.36 589.265 1794.83 566.775 1777.79 549.966C1760.98 533.157 1738.96 524.753 1711.74 524.753C1693.27 524.753 1676.46 529.488 1661.31 538.957C1646.16 548.19 1634.08 561.33 1625.09 578.375C1616.09 595.184 1611.59 614.833 1611.59 637.324V969H1483.04Z" fill="black"/>
<path d="M3878.97 441.656C3875.66 410.643 3861.69 386.495 3837.07 369.213C3812.69 351.931 3780.96 343.29 3741.9 343.29C3714.44 343.29 3690.88 347.433 3671.23 355.719C3651.58 364.005 3636.55 375.25 3626.13 389.455C3615.72 403.659 3610.39 419.876 3610.15 438.105C3610.15 453.257 3613.59 466.396 3620.45 477.523C3627.55 488.65 3637.14 498.119 3649.22 505.932C3661.29 513.508 3674.67 519.9 3689.34 525.108C3704.02 530.316 3718.82 534.696 3733.73 538.247L3801.91 555.293C3829.38 561.685 3855.77 570.326 3881.11 581.216C3906.67 592.106 3929.52 605.837 3949.64 622.409C3970 638.981 3986.1 658.986 3997.94 682.423C4009.77 705.861 4015.69 733.323 4015.69 764.81C4015.69 807.423 4004.8 844.947 3983.02 877.381C3961.24 909.578 3929.76 934.791 3888.56 953.02C3847.61 971.012 3798.01 980.009 3739.77 980.009C3683.19 980.009 3634.06 971.249 3592.4 953.73C3550.97 936.211 3518.53 910.643 3495.1 877.026C3471.9 843.408 3459.35 802.452 3457.45 754.156H3587.07C3588.96 779.488 3596.78 800.558 3610.51 817.366C3624.24 834.175 3642.11 846.723 3664.13 855.009C3686.38 863.295 3711.24 867.438 3738.7 867.438C3767.35 867.438 3792.45 863.176 3813.99 854.653C3835.77 845.894 3852.81 833.82 3865.12 818.432C3877.44 802.807 3883.71 784.578 3883.95 763.744C3883.71 744.805 3878.15 729.18 3867.26 716.869C3856.37 704.322 3841.1 693.905 3821.45 685.619C3802.03 677.097 3779.31 669.521 3753.26 662.892L3670.52 641.585C3610.63 626.197 3563.28 602.878 3528.48 571.628C3493.91 540.141 3476.63 498.356 3476.63 446.273C3476.63 403.422 3488.23 365.899 3511.43 333.702C3534.87 301.505 3566.71 276.528 3606.96 258.773C3647.2 240.78 3692.78 231.784 3743.68 231.784C3795.29 231.784 3840.5 240.78 3879.33 258.773C3918.39 276.528 3949.05 301.268 3971.3 332.991C3993.56 364.478 4005.04 400.7 4005.75 441.656H3878.97ZM4399.84 423.545V522.977H4086.27V423.545H4399.84ZM4163.69 292.864H4292.24V804.938C4292.24 822.22 4294.84 835.477 4300.05 844.71C4305.5 853.706 4312.6 859.862 4321.36 863.176C4330.12 866.491 4339.82 868.148 4350.48 868.148C4358.53 868.148 4365.86 867.556 4372.49 866.372C4379.36 865.188 4384.57 864.123 4388.12 863.176L4409.78 963.673C4402.92 966.041 4393.09 968.645 4380.31 971.486C4367.76 974.327 4352.37 975.984 4334.14 976.457C4301.94 977.404 4272.94 972.551 4247.14 961.898C4221.33 951.008 4200.86 934.199 4185.7 911.472C4170.79 888.744 4163.45 860.335 4163.69 826.244V292.864ZM4739.41 979.653C4686.15 979.653 4639.98 967.935 4600.92 944.497C4561.86 921.06 4531.55 888.271 4510.01 846.131C4488.7 803.991 4478.05 754.748 4478.05 698.403C4478.05 642.059 4488.7 592.698 4510.01 550.321C4531.55 507.944 4561.86 475.037 4600.92 451.599C4639.98 428.162 4686.15 416.443 4739.41 416.443C4792.68 416.443 4838.85 428.162 4877.91 451.599C4916.97 475.037 4947.16 507.944 4968.46 550.321C4990.01 592.698 5000.78 642.059 5000.78 698.403C5000.78 754.748 4990.01 803.991 4968.46 846.131C4947.16 888.271 4916.97 921.06 4877.91 944.497C4838.85 967.935 4792.68 979.653 4739.41 979.653ZM4740.12 876.67C4769.01 876.67 4793.16 868.74 4812.57 852.878C4831.98 836.779 4846.42 815.236 4855.89 788.247C4865.6 761.259 4870.45 731.192 4870.45 698.048C4870.45 664.668 4865.6 634.483 4855.89 607.494C4846.42 580.269 4831.98 558.607 4812.57 542.509C4793.16 526.41 4769.01 518.361 4740.12 518.361C4710.53 518.361 4685.91 526.41 4666.26 542.509C4646.85 558.607 4632.29 580.269 4622.58 607.494C4613.11 634.483 4608.38 664.668 4608.38 698.048C4608.38 731.192 4613.11 761.259 4622.58 788.247C4632.29 815.236 4646.85 836.779 4666.26 852.878C4685.91 868.74 4710.53 876.67 4740.12 876.67ZM5109.89 969V423.545H5234.53V514.455H5240.21C5250.16 482.968 5267.2 458.702 5291.35 441.656C5315.73 424.374 5343.55 415.733 5374.8 415.733C5381.9 415.733 5389.84 416.088 5398.59 416.798C5407.59 417.272 5415.05 418.1 5420.97 419.284V537.537C5415.52 535.643 5406.88 533.986 5395.04 532.565C5383.44 530.908 5372.2 530.08 5361.31 530.08C5337.87 530.08 5316.8 535.169 5298.1 545.349C5279.63 555.293 5265.07 569.142 5254.42 586.898C5243.76 604.653 5238.44 625.132 5238.44 648.332V969H5109.89ZM5725.39 979.653C5670.7 979.653 5623.47 968.29 5583.7 945.562C5544.16 922.598 5513.74 890.165 5492.43 848.261C5471.13 806.121 5460.47 756.524 5460.47 699.469C5460.47 643.361 5471.13 594.118 5492.43 551.741C5513.98 509.128 5544.04 475.984 5582.63 452.31C5621.22 428.399 5666.56 416.443 5718.64 416.443C5752.26 416.443 5783.98 421.888 5813.81 432.778C5843.88 443.432 5870.39 460.004 5893.36 482.494C5916.56 504.985 5934.79 533.631 5948.04 568.432C5961.3 602.996 5967.93 644.189 5967.93 692.011V731.429H5520.84V644.781H5844.71C5844.47 620.16 5839.14 598.261 5828.73 579.085C5818.31 559.672 5803.75 544.402 5785.05 533.276C5766.58 522.149 5745.04 516.585 5720.42 516.585C5694.14 516.585 5671.06 522.977 5651.17 535.761C5631.28 548.309 5615.78 564.881 5604.65 585.477C5593.76 605.837 5588.2 628.209 5587.96 652.594V728.233C5587.96 759.956 5593.76 787.182 5605.36 809.909C5616.96 832.4 5633.18 849.682 5654.01 861.756C5674.84 873.593 5699.23 879.511 5727.16 879.511C5745.87 879.511 5762.79 876.907 5777.94 871.699C5793.1 866.254 5806.24 858.323 5817.36 847.906C5828.49 837.49 5836.89 824.587 5842.58 809.199L5962.6 822.693C5955.03 854.417 5940.59 882.116 5919.28 905.79C5898.21 929.227 5871.22 947.456 5838.31 960.477C5805.41 973.261 5767.76 979.653 5725.39 979.653Z" fill="black"/>
<defs>
<clipPath id="clip0_27_25">
<rect width="1038" height="1200" fill="white" transform="translate(2344 70)"/>
</clipPath>
</defs>
</svg>
